<svg width="17" height="18" viewBox="0 0 17 18" fill="none" xmlns="http://www.w3.org/2000/svg">
<g clip-path="url(#clip0_135_2379)">
<path fill-rule="evenodd" clip-rule="evenodd" d="M12.8386 9.50572C12.8191 7.45775 14.5119 6.47073 14.5883 6.42396C13.6377 5.03035 12.1546 4.83958 11.6265 4.81728C10.3657 4.69068 9.16585 5.56057 8.52573 5.56057C7.88735 5.56057 6.89889 4.83656 5.85405 4.85715C4.47828 4.87628 3.21099 5.65582 2.50267 6.8864C1.07524 9.36487 2.1378 13.0355 3.52982 15.0462C4.20922 16.028 5.02128 17.1356 6.08611 17.0956C7.11327 17.0553 7.50002 16.4332 8.73881 16.4332C9.97861 16.4332 10.3268 17.0956 11.4132 17.0752C12.5155 17.0553 13.2163 16.0723 13.8915 15.0865C14.6721 13.9445 14.9935 12.8391 15.0122 12.7817C14.9885 12.7731 12.8609 11.9563 12.8386 9.50572Z" fill="white"/>
<path fill-rule="evenodd" clip-rule="evenodd" d="M10.8014 3.489C11.3673 2.80312 11.747 1.85136 11.643 0.902344C10.8285 0.934702 9.84091 1.44604 9.25748 2.12977C8.73304 2.73651 8.27406 3.70538 8.39852 4.63454C9.30712 4.70518 10.2353 4.17356 10.8014 3.489Z" fill="white"/>
</g>
<defs>
<clipPath id="clip0_135_2379">
<rect width="16.1949" height="16.1949" fill="white" transform="translate(0.321289 0.902344)"/>
</clipPath>
</defs>
</svg>
