<svg width="24" height="24" viewBox="0 0 24 24" fill="none" xmlns="http://www.w3.org/2000/svg">
<path fill-rule="evenodd" clip-rule="evenodd" d="M2 0C1.46957 0 0.960859 0.210714 0.585787 0.585787C0.210714 0.960859 0 1.46957 0 2V22C0 22.5304 0.210714 23.0391 0.585787 23.4142C0.960859 23.7893 1.46957 24 2 24H22C22.5304 24 23.0391 23.7893 23.4142 23.4142C23.7893 23.0391 24 22.5304 24 22V2C24 1.46957 23.7893 0.960859 23.4142 0.585787C23.0391 0.210714 22.5304 0 22 0H2ZM11.3333 3.33333V5.33333H9.33333V6.66667H11.3333V8.66667H12.6667V6.66667H14.6667V5.33333H12.6667V3.33333H11.3333ZM2.69333 10.1833C2.65051 10.0153 2.67487 9.83713 2.76125 9.68673C2.84762 9.53633 2.9892 9.42551 3.15595 9.37779C3.32269 9.33007 3.50147 9.34922 3.65433 9.43116C3.80719 9.5131 3.9221 9.65139 3.97467 9.81667L4.77467 12.6153H10V13.9487H9.128V15.0767H9.48733C9.64117 15.0766 9.79029 15.1297 9.90942 15.2271C10.0286 15.3244 10.1104 15.4599 10.141 15.6107C10.1716 15.7615 10.1491 15.9182 10.0774 16.0542C10.0056 16.1903 9.88902 16.2974 9.74733 16.3573L10.6347 19.1307C10.6557 19.1962 10.6665 19.2645 10.6667 19.3333H13.3333C13.3333 19.2667 13.3433 19.198 13.3647 19.13L14.252 16.3573C14.1107 16.2971 13.9945 16.19 13.9231 16.054C13.8516 15.918 13.8294 15.7615 13.86 15.611C13.8907 15.4604 13.9724 15.3251 14.0913 15.2279C14.2102 15.1307 14.3591 15.0775 14.5127 15.0773H14.872V13.9487H14V12.6153H19.2267L20.0253 9.81667C20.0494 9.73245 20.0898 9.65379 20.1443 9.5852C20.1988 9.5166 20.2662 9.4594 20.3428 9.41687C20.4194 9.37434 20.5036 9.34731 20.5906 9.33733C20.6776 9.32734 20.7658 9.33459 20.85 9.35867C20.9342 9.38274 21.0129 9.42317 21.0815 9.47764C21.1501 9.53212 21.2073 9.59957 21.2498 9.67615C21.2923 9.75272 21.3194 9.83693 21.3293 9.92395C21.3393 10.011 21.3321 10.0991 21.308 10.1833L20.018 14.6973L20.8773 19.2087C20.885 19.2498 20.8888 19.2915 20.8887 19.3333H22C22.1768 19.3333 22.3464 19.4036 22.4714 19.5286C22.5964 19.6536 22.6667 19.8232 22.6667 20C22.6667 20.1768 22.5964 20.3464 22.4714 20.4714C22.3464 20.5964 22.1768 20.6667 22 20.6667H2C1.82319 20.6667 1.65362 20.5964 1.5286 20.4714C1.40357 20.3464 1.33333 20.1768 1.33333 20C1.33333 19.8232 1.40357 19.6536 1.5286 19.5286C1.65362 19.4036 1.82319 19.3333 2 19.3333H3.11067C3.11067 19.292 3.11467 19.2507 3.12267 19.2087L3.98267 14.6973L2.69267 10.1833H2.69333ZM18.7333 15.0767H16.206V13.9487H18.846L18.6927 14.4833C18.6642 14.5835 18.6597 14.689 18.6793 14.7913L18.7333 15.0767ZM19.0353 16.6667H15.5533L14.7 19.3333H19.5433L19.0353 16.6667ZM7.79533 15.0767V13.9487H5.15533L5.30733 14.4833C5.336 14.5835 5.3408 14.689 5.32133 14.7913L5.26733 15.0767H7.79467H7.79533ZM4.456 19.3333L4.964 16.6667H8.446L9.29933 19.3333H4.456Z" fill="#454545"/>
</svg>
