<svg width="25" height="24" viewBox="0 0 25 24" fill="none" xmlns="http://www.w3.org/2000/svg">
<path d="M4.63481 10C4.46697 10.6534 4.3823 11.3254 4.38281 12C4.38281 12.69 4.47081 13.36 4.63481 14H7.48281C7.34799 12.6701 7.34799 11.3299 7.48281 10H4.63481ZM5.45281 8H7.79881C8.06481 6.783 8.44881 5.693 8.91981 4.786C7.46799 5.48542 6.26003 6.60523 5.45281 8ZM20.1308 10H17.2828C17.4176 11.3299 17.4176 12.6701 17.2828 14H20.1308C20.4675 12.6879 20.4675 11.3121 20.1308 10ZM19.3128 8C18.5056 6.60523 17.2976 5.48542 15.8458 4.786C16.3178 5.693 16.7008 6.783 16.9668 8H19.3128ZM9.49481 10C9.41989 10.664 9.3825 11.3318 9.38281 12C9.38281 12.685 9.42081 13.355 9.49481 14H15.2708C15.4214 12.6709 15.4214 11.3291 15.2708 10H9.49481ZM9.85281 8H14.9128C14.7308 7.2483 14.4683 6.51841 14.1298 5.823C13.5018 4.568 12.8298 4 12.3828 4C11.9348 4 11.2638 4.568 10.6358 5.823C10.3208 6.455 10.0558 7.19 9.85281 8ZM5.45281 16C6.26003 17.3948 7.46799 18.5146 8.91981 19.214C8.44781 18.307 8.06481 17.217 7.79881 16H5.45281ZM19.3128 16H16.9668C16.7008 17.217 16.3168 18.307 15.8458 19.214C17.2976 18.5146 18.5056 17.3948 19.3128 16ZM9.85281 16C10.0558 16.81 10.3208 17.545 10.6358 18.177C11.2638 19.432 11.9358 20 12.3828 20C12.8308 20 13.5018 19.432 14.1298 18.177C14.4448 17.545 14.7098 16.81 14.9128 16H9.85281ZM12.3828 22C6.85981 22 2.38281 17.523 2.38281 12C2.38281 6.477 6.85981 2 12.3828 2C17.9058 2 22.3828 6.477 22.3828 12C22.3828 17.523 17.9058 22 12.3828 22Z" fill="#BEBDBD"/>
</svg>
