<svg width="35" height="35" viewBox="0 0 35 35" fill="none" xmlns="http://www.w3.org/2000/svg">
<circle cx="17.5" cy="17.5" r="17.5" fill="white"/>
<path d="M24.0498 10.9101C23.133 9.98399 22.041 9.24973 20.8374 8.75011C19.6339 8.25049 18.3429 7.99552 17.0398 8.00006C11.5798 8.00006 7.1298 12.4501 7.1298 17.9101C7.1298 19.6601 7.5898 21.3601 8.4498 22.8601L7.0498 28.0001L12.2998 26.6201C13.7498 27.4101 15.3798 27.8301 17.0398 27.8301C22.4998 27.8301 26.9498 23.3801 26.9498 17.9201C26.9498 15.2701 25.9198 12.7801 24.0498 10.9101ZM17.0398 26.1501C15.5598 26.1501 14.1098 25.7501 12.8398 25.0001L12.5398 24.8201L9.4198 25.6401L10.2498 22.6001L10.0498 22.2901C9.22755 20.977 8.79094 19.4593 8.7898 17.9101C8.7898 13.3701 12.4898 9.67006 17.0298 9.67006C19.2298 9.67006 21.2998 10.5301 22.8498 12.0901C23.6173 12.854 24.2255 13.7627 24.6392 14.7635C25.0529 15.7642 25.2638 16.8372 25.2598 17.9201C25.2798 22.4601 21.5798 26.1501 17.0398 26.1501ZM21.5598 19.9901C21.3098 19.8701 20.0898 19.2701 19.8698 19.1801C19.6398 19.1001 19.4798 19.0601 19.3098 19.3001C19.1398 19.5501 18.6698 20.1101 18.5298 20.2701C18.3898 20.4401 18.2398 20.4601 17.9898 20.3301C17.7398 20.2101 16.9398 19.9401 15.9998 19.1001C15.2598 18.4401 14.7698 17.6301 14.6198 17.3801C14.4798 17.1301 14.5998 17.0001 14.7298 16.8701C14.8398 16.7601 14.9798 16.5801 15.0998 16.4401C15.2198 16.3001 15.2698 16.1901 15.3498 16.0301C15.4298 15.8601 15.3898 15.7201 15.3298 15.6001C15.2698 15.4801 14.7698 14.2601 14.5698 13.7601C14.3698 13.2801 14.1598 13.3401 14.0098 13.3301H13.5298C13.3598 13.3301 13.0998 13.3901 12.8698 13.6401C12.6498 13.8901 12.0098 14.4901 12.0098 15.7101C12.0098 16.9301 12.8998 18.1101 13.0198 18.2701C13.1398 18.4401 14.7698 20.9401 17.2498 22.0101C17.8398 22.2701 18.2998 22.4201 18.6598 22.5301C19.2498 22.7201 19.7898 22.6901 20.2198 22.6301C20.6998 22.5601 21.6898 22.0301 21.8898 21.4501C22.0998 20.8701 22.0998 20.3801 22.0298 20.2701C21.9598 20.1601 21.8098 20.1101 21.5598 19.9901Z" fill="#146859"/>
</svg>
