<svg width="35" height="35" viewBox="0 0 35 35" fill="none" xmlns="http://www.w3.org/2000/svg">
<circle cx="17.5" cy="17.5" r="17.5" fill="white"/>
<path d="M15 21L20.19 18L15 15V21ZM26.56 13.17C26.69 13.64 26.78 14.27 26.84 15.07C26.91 15.87 26.94 16.56 26.94 17.16L27 18C27 20.19 26.84 21.8 26.56 22.83C26.31 23.73 25.73 24.31 24.83 24.56C24.36 24.69 23.5 24.78 22.18 24.84C20.88 24.91 19.69 24.94 18.59 24.94L17 25C12.81 25 10.2 24.84 9.17 24.56C8.27 24.31 7.69 23.73 7.44 22.83C7.31 22.36 7.22 21.73 7.16 20.93C7.09 20.13 7.06 19.44 7.06 18.84L7 18C7 15.81 7.16 14.2 7.44 13.17C7.69 12.27 8.27 11.69 9.17 11.44C9.64 11.31 10.5 11.22 11.82 11.16C13.12 11.09 14.31 11.06 15.41 11.06L17 11C21.19 11 23.8 11.16 24.83 11.44C25.73 11.69 26.31 12.27 26.56 13.17Z" fill="#146859"/>
</svg>
