<svg width="35" height="35" viewBox="0 0 35 35" fill="none" xmlns="http://www.w3.org/2000/svg">
<circle cx="17.5" cy="17.5" r="17.5" fill="white"/>
<path d="M12.8 8H21.2C24.4 8 27 10.6 27 13.8V22.2C27 23.7383 26.3889 25.2135 25.3012 26.3012C24.2135 27.3889 22.7383 28 21.2 28H12.8C9.6 28 7 25.4 7 22.2V13.8C7 12.2617 7.61107 10.7865 8.69878 9.69878C9.78649 8.61107 11.2617 8 12.8 8ZM12.6 10C11.6452 10 10.7295 10.3793 10.0544 11.0544C9.37928 11.7295 9 12.6452 9 13.6V22.4C9 24.39 10.61 26 12.6 26H21.4C22.3548 26 23.2705 25.6207 23.9456 24.9456C24.6207 24.2705 25 23.3548 25 22.4V13.6C25 11.61 23.39 10 21.4 10H12.6ZM22.25 11.5C22.5815 11.5 22.8995 11.6317 23.1339 11.8661C23.3683 12.1005 23.5 12.4185 23.5 12.75C23.5 13.0815 23.3683 13.3995 23.1339 13.6339C22.8995 13.8683 22.5815 14 22.25 14C21.9185 14 21.6005 13.8683 21.3661 13.6339C21.1317 13.3995 21 13.0815 21 12.75C21 12.4185 21.1317 12.1005 21.3661 11.8661C21.6005 11.6317 21.9185 11.5 22.25 11.5ZM17 13C18.3261 13 19.5979 13.5268 20.5355 14.4645C21.4732 15.4021 22 16.6739 22 18C22 19.3261 21.4732 20.5979 20.5355 21.5355C19.5979 22.4732 18.3261 23 17 23C15.6739 23 14.4021 22.4732 13.4645 21.5355C12.5268 20.5979 12 19.3261 12 18C12 16.6739 12.5268 15.4021 13.4645 14.4645C14.4021 13.5268 15.6739 13 17 13ZM17 15C16.2044 15 15.4413 15.3161 14.8787 15.8787C14.3161 16.4413 14 17.2044 14 18C14 18.7956 14.3161 19.5587 14.8787 20.1213C15.4413 20.6839 16.2044 21 17 21C17.7956 21 18.5587 20.6839 19.1213 20.1213C19.6839 19.5587 20 18.7956 20 18C20 17.2044 19.6839 16.4413 19.1213 15.8787C18.5587 15.3161 17.7956 15 17 15Z" fill="#146859"/>
</svg>
