<svg width="35" height="35" viewBox="0 0 35 35" fill="none" xmlns="http://www.w3.org/2000/svg">
<circle cx="17.5" cy="17.5" r="17.5" fill="white"/>
<path d="M28.384 11.9675C27.6209 12.305 26.8116 12.5268 25.983 12.6255C26.8561 12.1026 27.5093 11.2802 27.821 10.3114C27.001 10.7994 26.102 11.1414 25.166 11.3264C24.5366 10.653 23.7024 10.2064 22.793 10.056C21.8836 9.90566 20.9499 10.0599 20.1373 10.4949C19.3246 10.9299 18.6784 11.6211 18.2991 12.4612C17.9198 13.3014 17.8287 14.2432 18.04 15.1405C16.3769 15.0572 14.75 14.6252 13.2647 13.8723C11.7795 13.1194 10.4692 12.0626 9.419 10.7705C9.04729 11.4089 8.85196 12.1347 8.853 12.8734C8.853 14.3235 9.592 15.6045 10.713 16.3545C10.049 16.3335 9.39965 16.1542 8.819 15.8315V15.8825C8.81897 16.8483 9.15303 17.7845 9.76453 18.5321C10.376 19.2798 11.2273 19.7929 12.174 19.9845C11.5576 20.1517 10.9113 20.1763 10.284 20.0564C10.5509 20.8878 11.0712 21.6149 11.772 22.1358C12.4728 22.6568 13.319 22.9455 14.192 22.9614C13.3244 23.6429 12.3309 24.1466 11.2684 24.4438C10.2059 24.741 9.09529 24.8258 8 24.6934C9.91172 25.9228 12.1371 26.5755 14.41 26.5734C22.104 26.5734 26.31 20.2005 26.31 14.6735C26.31 14.4935 26.306 14.3115 26.298 14.1325C27.1164 13.5408 27.8228 12.807 28.384 11.9675Z" fill="#146859"/>
</svg>
