<svg width="79" height="58" viewBox="0 0 79 58" fill="none" xmlns="http://www.w3.org/2000/svg">
<path d="M5.39041 29.8685C0.107979 26.8785 0.673954 44.1956 1.61725 53.2279C4.4471 54.1623 10.8614 56.031 13.88 56.031C17.6531 56.031 28.9726 55.0966 36.519 56.031C44.0653 56.9654 67.6476 55.0966 73.3073 53.2279C78.9671 51.3591 77.0805 47.6216 77.0805 42.0154C77.0805 36.4091 67.6476 36.4091 66.7043 36.4091C65.761 36.4091 67.6476 29.8685 67.6476 24.2623C67.6476 19.7773 64.5033 18.0331 62.9311 17.7216C59.4724 16.1643 52.1776 13.2366 50.6683 13.9841C49.1591 14.7316 45.6375 16.7873 44.0653 17.7216C42.1787 15.5414 38.0282 11.5548 36.519 13.0498C35.0097 14.5448 29.6015 7.44352 27.0861 3.70602C25.1995 -0.965855 10.1068 3.70602 7.27694 6.50914C4.44707 9.31227 9.16352 17.7216 10.1068 26.131C11.0501 34.5404 11.9935 33.606 5.39041 29.8685Z" fill="#146859" stroke="white" stroke-width="1.55882"/>
</svg>
