<svg width="17" height="18" viewBox="0 0 17 18" fill="none" xmlns="http://www.w3.org/2000/svg">
<g clip-path="url(#clip0_135_2387)">
<path d="M1.60503 17.0327L16.5832 9.54431C17.0316 9.32015 17.0316 8.68033 16.5832 8.45617L1.60503 0.96784C1.20051 0.765604 0.724609 1.05972 0.724609 1.51189V16.4886C0.724609 16.9408 1.20051 17.2349 1.60503 17.0327Z" fill="#F6B94C"/>
<path d="M0.927767 1.05811C0.805063 1.16706 0.724609 1.32604 0.724609 1.51184V16.4886C0.724609 16.6744 0.805063 16.8334 0.927767 16.9423L8.86987 9.00021L0.927767 1.05811Z" fill="#52C1FF"/>
<path d="M11.8035 6.06654L1.60499 0.967802C1.36668 0.848665 1.10371 0.9019 0.927734 1.05812L8.86984 9.00022L11.8035 6.06654Z" fill="#67C7A5"/>
<path d="M0.927734 16.9421C1.10371 17.0983 1.36668 17.1516 1.60499 17.0324L11.8035 11.9336L8.86984 9L0.927734 16.9421Z" fill="#F56C61"/>
</g>
<defs>
<clipPath id="clip0_135_2387">
<rect width="16.1949" height="16.1949" fill="white" transform="translate(0.724609 0.902832)"/>
</clipPath>
</defs>
</svg>
