<svg width="24" height="26" viewBox="0 0 24 26" fill="none" xmlns="http://www.w3.org/2000/svg">
<path d="M16.9412 0.705882C16.9412 0.518671 17.0155 0.339127 17.1479 0.206748C17.2803 0.0743695 17.4598 0 17.6471 0H23.2941C23.4813 0 23.6609 0.0743695 23.7933 0.206748C23.9256 0.339127 24 0.518671 24 0.705882V7.76471C24 7.95192 23.9256 8.13146 23.7933 8.26384C23.6609 8.39622 23.4813 8.47059 23.2941 8.47059H21.1765V24.7059C21.1765 24.8931 21.1021 25.0726 20.9697 25.205C20.8373 25.3374 20.6578 25.4118 20.4706 25.4118C20.2834 25.4118 20.1038 25.3374 19.9715 25.205C19.8391 25.0726 19.7647 24.8931 19.7647 24.7059V8.47059H17.6471C17.4598 8.47059 17.2803 8.39622 17.1479 8.26384C17.0155 8.13146 16.9412 7.95192 16.9412 7.76471V0.705882ZM15.5294 2.82353H5.84471C5.0286 2.82337 4.23766 3.10603 3.60651 3.62341C2.97536 4.14079 2.54302 4.8609 2.38306 5.66118L2.10353 7.05882H1.05882C0.778006 7.05882 0.50869 7.17038 0.310122 7.36895C0.111554 7.56751 4.01603e-08 7.83683 4.01603e-08 8.11765C4.01603e-08 8.39846 0.111554 8.66778 0.310122 8.86635C0.50869 9.06492 0.778006 9.17647 1.05882 9.17647H1.68L1.52329 9.96706C1.08369 10.0956 0.69761 10.3632 0.422965 10.7298C0.148319 11.0963 -8.91308e-05 11.542 4.01603e-08 12V17.6471C4.01603e-08 18.2087 0.223109 18.7473 0.620245 19.1445C1.01738 19.5416 1.55601 19.7647 2.11765 19.7647H18.3529V9.88235H2.97882L3.768 5.93788C3.86392 5.458 4.12308 5.02615 4.50142 4.71576C4.87976 4.40537 5.35392 4.23559 5.84329 4.23529H15.5294V2.82353ZM18.3529 14.8235C18.3529 15.198 18.2042 15.557 17.9394 15.8218C17.6747 16.0866 17.3156 16.2353 16.9412 16.2353C16.5668 16.2353 16.2077 16.0866 15.9429 15.8218C15.6782 15.557 15.5294 15.198 15.5294 14.8235C15.5294 14.4491 15.6782 14.09 15.9429 13.8253C16.2077 13.5605 16.5668 13.4118 16.9412 13.4118C17.3156 13.4118 17.6747 13.5605 17.9394 13.8253C18.2042 14.09 18.3529 14.4491 18.3529 14.8235ZM18.3529 24C17.9785 24 17.6194 23.8513 17.3547 23.5865C17.0899 23.3217 16.9412 22.9627 16.9412 22.5882V21.1765H18.3529V24ZM5.64706 22.5882V21.1765H2.82353V22.5882C2.82353 22.9627 2.97227 23.3217 3.23703 23.5865C3.50178 23.8513 3.86087 24 4.23529 24C4.60972 24 4.96881 23.8513 5.23356 23.5865C5.49832 23.3217 5.64706 22.9627 5.64706 22.5882ZM4.23529 14.8235C4.23529 14.4491 4.38403 14.09 4.64879 13.8253C4.91355 13.5605 5.27264 13.4118 5.64706 13.4118C6.02148 13.4118 6.38057 13.5605 6.64533 13.8253C6.91008 14.09 7.05882 14.4491 7.05882 14.8235C7.05882 15.198 6.91008 15.557 6.64533 15.8218C6.38057 16.0866 6.02148 16.2353 5.64706 16.2353C5.27264 16.2353 4.91355 16.0866 4.64879 15.8218C4.38403 15.557 4.23529 15.198 4.23529 14.8235Z" fill="#454545"/>
</svg>
