<svg width="24" height="18" viewBox="0 0 24 18" fill="none" xmlns="http://www.w3.org/2000/svg">
<path d="M12.5455 2.18182C12.5455 0.970909 13.5164 0 14.7273 0H18.5455C19.7455 0 20.7273 0.981818 20.7273 2.18182V4.53818C19.4618 4.98545 18.5455 6.18545 18.5455 7.60364V9.81818H12.5455V2.18182ZM5.45455 7.59273V9.81818H11.4545V2.18182C11.4545 0.970909 10.4836 0 9.27273 0H5.45455C4.25455 0 3.27273 0.981818 3.27273 2.18182V4.52727C4.53818 4.97455 5.45455 6.18545 5.45455 7.59273ZM21.4473 5.48727C20.3782 5.66182 19.6364 6.67636 19.6364 7.76727V10.9091H4.36364V7.63636C4.36364 7.05771 4.13377 6.50276 3.7246 6.09359C3.31543 5.68442 2.76047 5.45455 2.18182 5.45455C1.60316 5.45455 1.04821 5.68442 0.63904 6.09359C0.22987 6.50276 0 7.05771 0 7.63636V13.0909C0 14.2909 0.981818 15.2727 2.18182 15.2727V17.4545H4.36364V15.2727H19.6364V17.4545H21.8182V15.2727C23.0182 15.2727 24 14.2909 24 13.0909V7.63636C24 6.31636 22.8109 5.25818 21.4473 5.48727Z" fill="#454545"/>
</svg>
