<svg width="41" height="41" viewBox="0 0 41 41" fill="none" xmlns="http://www.w3.org/2000/svg">
<path fill-rule="evenodd" clip-rule="evenodd" d="M3.71582 20.4997C3.71582 11.2949 11.1777 3.83301 20.3825 3.83301C29.5872 3.83301 37.0492 11.2949 37.0492 20.4997C37.0492 25.6894 34.6772 30.3251 30.9582 33.3818C30.233 31.3552 28.9381 29.573 27.2203 28.2549C25.2586 26.7496 22.855 25.9337 20.3823 25.9337C17.9096 25.9337 15.506 26.7496 13.5443 28.2549C11.8266 29.573 10.5317 31.3551 9.80652 33.3816C6.08769 30.3249 3.71582 25.6893 3.71582 20.4997ZM25.7196 30.2107C27.2414 31.3785 28.338 33.0129 28.8417 34.8631C26.362 36.3266 23.4703 37.1663 20.3825 37.1663C17.2945 37.1663 14.4027 36.3266 11.923 34.8629C12.4268 33.0128 13.5233 31.3784 15.0451 30.2107C16.5763 29.0358 18.4523 28.399 20.3823 28.399C22.3123 28.399 24.1884 29.0358 25.7196 30.2107ZM16.615 15.4997C16.615 13.419 18.3017 11.7323 20.3823 11.7323C22.463 11.7323 24.1497 13.419 24.1497 15.4997C24.1497 17.5804 22.463 19.2671 20.3823 19.2671C18.3017 19.2671 16.615 17.5804 16.615 15.4997ZM20.3823 9.26706C16.9401 9.26706 14.1497 12.0575 14.1497 15.4997C14.1497 18.9419 16.9401 21.7323 20.3823 21.7323C23.8245 21.7323 26.615 18.9419 26.615 15.4997C26.615 12.0575 23.8245 9.26706 20.3823 9.26706Z" fill="#146758"/>
<rect x="4.33214" y="4.44933" width="32.1007" height="32.1007" rx="16.0503" stroke="#146758" stroke-width="1.23264"/>
</svg>
