<svg width="18" height="22" viewBox="0 0 18 22" fill="none" xmlns="http://www.w3.org/2000/svg">
<path d="M8.67542 0.258789C6.40024 0.261364 4.21902 1.12949 2.61023 2.67274C1.00144 4.21599 0.0964432 6.30834 0.0937591 8.49082C0.0910341 10.2744 0.698361 12.0095 1.82257 13.43C1.82257 13.43 2.05662 13.7256 2.09485 13.7683L8.67542 21.2131L15.2591 13.7646C15.2934 13.7249 15.5283 13.43 15.5283 13.43L15.529 13.4278C16.6527 12.0079 17.2597 10.2735 17.2571 8.49082C17.2544 6.30834 16.3494 4.21599 14.7406 2.67274C13.1318 1.12949 10.9506 0.261364 8.67542 0.258789ZM8.67542 11.4843C8.05822 11.4843 7.45488 11.3087 6.9417 10.9798C6.42852 10.6509 6.02855 10.1834 5.79236 9.63637C5.55616 9.08939 5.49437 8.4875 5.61478 7.90683C5.73518 7.32615 6.03239 6.79277 6.46882 6.37412C6.90524 5.95548 7.46128 5.67038 8.06662 5.55488C8.67196 5.43937 9.2994 5.49865 9.86962 5.72522C10.4398 5.95179 10.9272 6.33547 11.2701 6.82774C11.613 7.32002 11.796 7.89877 11.796 8.49082C11.795 9.28444 11.4659 10.0453 10.8809 10.6064C10.2959 11.1676 9.50274 11.4833 8.67542 11.4843Z" fill="#171313"/>
</svg>
