<svg width="24" height="21" viewBox="0 0 24 21" fill="none" xmlns="http://www.w3.org/2000/svg">
<path d="M21 7.5V3C21 2.20435 20.6839 1.44129 20.1213 0.87868C19.5587 0.31607 18.7957 0 18 0H6C5.20435 0 4.44129 0.31607 3.87868 0.87868C3.31607 1.44129 3 2.20435 3 3V7.5C2.20435 7.5 1.44129 7.81607 0.87868 8.37868C0.31607 8.94129 0 9.70435 0 10.5V18H1.995L3 21H4.5L5.505 18H18.495L19.5 21H21L22.005 18H24V10.5C24 9.70435 23.6839 8.94129 23.1213 8.37868C22.5587 7.81607 21.7957 7.5 21 7.5ZM10.5 7.5H6V3H10.5M18 7.5H13.5V3H18V7.5Z" fill="white"/>
</svg>
