<svg width="24" height="26" viewBox="0 0 24 26" fill="none" xmlns="http://www.w3.org/2000/svg">
<path d="M1.97308 2.50668C1.61797 2.50668 1.32009 2.38636 1.07945 2.14572C0.838809 1.90508 0.718907 1.60762 0.719742 1.25334C0.719742 0.898229 0.840063 0.600352 1.0807 0.359712C1.32134 0.119071 1.6188 -0.000831221 1.97308 4.33681e-06H3.22641C3.58153 4.33681e-06 3.8794 0.120325 4.12004 0.360965C4.36068 0.601606 4.48059 0.899064 4.47975 1.25334C4.47975 1.60845 4.35943 1.90633 4.11879 2.14697C3.87815 2.38761 3.58069 2.50751 3.22641 2.50668H1.97308ZM0.469075 20.0534L0.0617407 22.0587C-0.105371 22.8525 0.0667543 23.5523 0.578115 24.1581C1.08948 24.7638 1.74246 25.0667 2.53708 25.0667H10.7464V20.0534H0.469075ZM3.75908 6.51735L4.63642 5.64002C4.8662 5.41024 5.15363 5.29535 5.49871 5.29535C5.8438 5.29535 6.14126 5.41024 6.39109 5.64002C6.64176 5.89068 6.76709 6.18814 6.76709 6.53239C6.76709 6.87664 6.64176 7.17452 6.39109 7.42602L5.51375 8.30336C5.28397 8.53313 4.99654 8.64802 4.65146 8.64802C4.30637 8.64802 4.00891 8.53313 3.75908 8.30336C3.50842 8.05269 3.38308 7.75481 3.38308 7.40973C3.38308 7.06464 3.50842 6.76718 3.75908 6.51735ZM0.97041 17.5467H10.7464V12.5334H4.04108C3.4353 12.5334 2.89721 12.7214 2.42679 13.0974C1.95637 13.4734 1.66935 13.9538 1.56574 14.5387L0.97041 17.5467ZM11.9998 6.26668C10.266 6.26668 8.78788 5.65547 7.56546 4.43305C6.34304 3.21063 5.73225 1.73295 5.73309 4.33681e-06H18.2664C18.2664 1.73379 17.6552 3.21189 16.4328 4.43431C15.2104 5.65673 13.7327 6.26752 11.9998 6.26668ZM10.7464 10.0267V8.77336C10.7464 8.41824 10.8668 8.12037 11.1074 7.87973C11.348 7.63909 11.6455 7.51919 11.9998 7.52002C12.3549 7.52002 12.6528 7.64034 12.8934 7.88098C13.134 8.12162 13.2539 8.41908 13.2531 8.77336V10.0267C13.2531 10.3818 13.1328 10.6797 12.8921 10.9203C12.6515 11.161 12.354 11.2809 11.9998 11.28C11.6447 11.28 11.3468 11.1597 11.1061 10.9191C10.8655 10.6784 10.7456 10.381 10.7464 10.0267ZM13.2531 25.0667H21.4625C22.2562 25.0667 22.9092 24.7638 23.4214 24.1581C23.9336 23.5523 24.1057 22.8525 23.9378 22.0587L23.5305 20.0534H13.2531V25.0667ZM13.2531 17.5467H23.0291L22.4338 14.5387C22.3293 13.9538 22.0419 13.4734 21.5715 13.0974C21.1011 12.7214 20.5634 12.5334 19.9585 12.5334H13.2531V17.5467ZM18.4858 8.27202L17.6084 7.39469C17.3787 7.16491 17.2583 6.87748 17.2475 6.53239C17.2366 6.18731 17.3569 5.88985 17.6084 5.64002C17.8382 5.41024 18.1307 5.29535 18.4858 5.29535C18.8409 5.29535 19.1333 5.41024 19.3631 5.64002L20.2718 6.51735C20.5225 6.74713 20.6478 7.03456 20.6478 7.37965C20.6478 7.72473 20.5225 8.02219 20.2718 8.27202C20.0211 8.52269 19.7232 8.64802 19.3782 8.64802C19.0331 8.64802 18.7356 8.52269 18.4858 8.27202ZM22.0265 2.50668H19.5198V4.33681e-06H22.0265C22.3816 4.33681e-06 22.6794 0.120325 22.9201 0.360965C23.1607 0.601606 23.2806 0.899064 23.2798 1.25334C23.2798 1.60845 23.1595 1.90633 22.9188 2.14697C22.6782 2.38761 22.3807 2.50751 22.0265 2.50668Z" fill="#454545"/>
</svg>
