<svg width="21" height="18" viewBox="0 0 21 18" fill="none" xmlns="http://www.w3.org/2000/svg">
<path d="M3.03958 10.36L9.75995 16.1856C9.95861 16.3579 10.0579 16.444 10.172 16.4691C10.2371 16.4834 10.3046 16.4834 10.3697 16.4691C10.4837 16.444 10.5831 16.3579 10.7817 16.1856L17.5021 10.36C19.5706 8.56683 19.8169 5.44536 18.0552 3.35001L17.9653 3.24305C15.9635 0.862166 12.1839 1.28304 10.755 4.04596C10.5518 4.43882 9.98991 4.43882 9.78672 4.04596C8.35773 1.28304 4.5782 0.862168 2.57641 3.24305L2.48648 3.35001C0.72476 5.44536 0.971053 8.56684 3.03958 10.36Z" stroke="white" stroke-width="1.83893"/>
</svg>
