<svg width="21" height="18" viewBox="0 0 21 18" fill="none" xmlns="http://www.w3.org/2000/svg">
<path d="M3.22708 10.2906L9.94745 16.1163C10.1461 16.2885 10.2454 16.3746 10.3595 16.3997C10.4246 16.4141 10.4921 16.4141 10.5572 16.3997C10.6712 16.3746 10.7706 16.2885 10.9692 16.1163L17.6896 10.2906C19.7581 8.4975 20.0044 5.37603 18.2427 3.28067L18.1528 3.17372C16.151 0.79283 12.3714 1.2137 10.9425 3.97663C10.7393 4.36949 10.1774 4.36949 9.97422 3.97663C8.54523 1.2137 4.7657 0.792832 2.76391 3.17372L2.67398 3.28068C0.91226 5.37603 1.15855 8.4975 3.22708 10.2906Z" stroke="white" stroke-width="1.83893"/>
</svg>
