<svg width="21" height="18" viewBox="0 0 21 18" fill="none" xmlns="http://www.w3.org/2000/svg">
<path d="M3.22708 10.36L9.94745 16.1856C10.1461 16.3579 10.2454 16.444 10.3595 16.4691C10.4246 16.4834 10.4921 16.4834 10.5572 16.4691C10.6712 16.444 10.7706 16.3579 10.9692 16.1856L17.6896 10.36C19.7581 8.56683 20.0044 5.44536 18.2427 3.35001L18.1528 3.24305C16.151 0.862166 12.3714 1.28304 10.9425 4.04596C10.7393 4.43882 10.1774 4.43882 9.97422 4.04596C8.54523 1.28304 4.7657 0.862168 2.76391 3.24305L2.67398 3.35001C0.91226 5.44536 1.15855 8.56684 3.22708 10.36Z" stroke="white" stroke-width="1.83893"/>
</svg>
