<svg width="21" height="18" viewBox="0 0 21 18" fill="none" xmlns="http://www.w3.org/2000/svg">
<path d="M3.13333 10.36L9.8537 16.1856C10.0524 16.3579 10.1517 16.444 10.2657 16.4691C10.3309 16.4834 10.3983 16.4834 10.4634 16.4691C10.5775 16.444 10.6768 16.3579 10.8755 16.1856L17.5958 10.36C19.6644 8.56683 19.9107 5.44536 18.1489 3.35001L18.059 3.24305C16.0572 0.862166 12.2777 1.28304 10.8487 4.04596C10.6455 4.43882 10.0837 4.43882 9.88047 4.04596C8.45148 1.28304 4.67195 0.862168 2.67016 3.24305L2.58023 3.35001C0.81851 5.44536 1.0648 8.56684 3.13333 10.36Z" stroke="white" stroke-width="1.83893"/>
</svg>
