<svg width="18" height="21" viewBox="0 0 18 21" fill="none" xmlns="http://www.w3.org/2000/svg">
<path d="M8.86292 0.0136719C6.58774 0.0162466 4.40652 0.884375 2.79773 2.42762C1.18894 3.97087 0.283943 6.06323 0.281259 8.24571C0.278534 10.0292 0.885861 11.7644 2.01007 13.1849C2.01007 13.1849 2.24412 13.4805 2.28235 13.5232L8.86292 20.9679L15.4466 13.5194C15.4809 13.4798 15.7158 13.1849 15.7158 13.1849L15.7165 13.1827C16.8402 11.7627 17.4472 10.0284 17.4446 8.24571C17.4419 6.06323 16.5369 3.97087 14.9281 2.42762C13.3193 0.884375 11.1381 0.0162466 8.86292 0.0136719ZM8.86292 11.2392C8.24572 11.2392 7.64238 11.0636 7.1292 10.7347C6.61602 10.4058 6.21605 9.93824 5.97986 9.39126C5.74366 8.84427 5.68187 8.24239 5.80228 7.66171C5.92268 7.08103 6.21989 6.54765 6.65632 6.12901C7.09274 5.71036 7.64878 5.42526 8.25412 5.30976C8.85946 5.19425 9.4869 5.25354 10.0571 5.4801C10.6273 5.70667 11.1147 6.09035 11.4576 6.58263C11.8005 7.0749 11.9835 7.65366 11.9835 8.24571C11.9825 9.03932 11.6534 9.80014 11.0684 10.3613C10.4834 10.9225 9.69024 11.2382 8.86292 11.2392Z" fill="#171313"/>
</svg>
