<svg width="21" height="18" viewBox="0 0 21 18" fill="none" xmlns="http://www.w3.org/2000/svg">
<path d="M3.13333 10.568L9.8537 16.3937C10.0524 16.5659 10.1517 16.652 10.2657 16.6771C10.3309 16.6914 10.3983 16.6914 10.4634 16.6771C10.5775 16.652 10.6768 16.5659 10.8755 16.3937L17.5958 10.568C19.6644 8.77484 19.9107 5.65337 18.1489 3.55802L18.059 3.45106C16.0572 1.07017 12.2777 1.49105 10.8487 4.25397C10.6455 4.64683 10.0837 4.64683 9.88047 4.25397C8.45148 1.49105 4.67195 1.07018 2.67016 3.45106L2.58023 3.55802C0.81851 5.65337 1.0648 8.77484 3.13333 10.568Z" stroke="white" stroke-width="1.83893"/>
</svg>
