<svg width="18" height="22" viewBox="0 0 18 22" fill="none" xmlns="http://www.w3.org/2000/svg">
<path d="M8.76917 0.189453C6.49399 0.192028 4.31277 1.06016 2.70398 2.6034C1.09519 4.14665 0.190193 6.23901 0.187509 8.42149C0.184784 10.205 0.792111 11.9401 1.91632 13.3607C1.91632 13.3607 2.15037 13.6563 2.1886 13.699L8.76917 21.1437L15.3529 13.6952C15.3872 13.6556 15.622 13.3607 15.622 13.3607L15.6228 13.3585C16.7464 11.9385 17.3535 10.2042 17.3508 8.42149C17.3481 6.23901 16.4431 4.14665 14.8344 2.6034C13.2256 1.06016 11.0443 0.192028 8.76917 0.189453ZM8.76917 11.415C8.15197 11.415 7.54863 11.2394 7.03545 10.9105C6.52227 10.5815 6.1223 10.114 5.88611 9.56704C5.64991 9.02005 5.58812 8.41817 5.70853 7.83749C5.82893 7.25682 6.12614 6.72343 6.56257 6.30479C6.99899 5.88614 7.55503 5.60104 8.16037 5.48554C8.76571 5.37004 9.39315 5.42932 9.96337 5.65588C10.5336 5.88245 11.021 6.26613 11.3639 6.75841C11.7067 7.25068 11.8898 7.82944 11.8898 8.42149C11.8887 9.2151 11.5596 9.97593 10.9746 10.5371C10.3896 11.0983 9.59649 11.414 8.76917 11.415Z" fill="#171313"/>
</svg>
