<svg width="21" height="18" viewBox="0 0 21 18" fill="none" xmlns="http://www.w3.org/2000/svg">
<path d="M3.03958 10.568L9.75995 16.3937C9.95861 16.5659 10.0579 16.652 10.172 16.6771C10.2371 16.6914 10.3046 16.6914 10.3697 16.6771C10.4837 16.652 10.5831 16.5659 10.7817 16.3937L17.5021 10.568C19.5706 8.77484 19.8169 5.65337 18.0552 3.55802L17.9653 3.45106C15.9635 1.07017 12.1839 1.49105 10.755 4.25397C10.5518 4.64683 9.98991 4.64683 9.78672 4.25397C8.35773 1.49105 4.5782 1.07018 2.57641 3.45106L2.48648 3.55802C0.72476 5.65337 0.971053 8.77484 3.03958 10.568Z" stroke="white" stroke-width="1.83893"/>
</svg>
