<svg width="21" height="18" viewBox="0 0 21 18" fill="none" xmlns="http://www.w3.org/2000/svg">
<path d="M3.13333 10.2906L9.8537 16.1163C10.0524 16.2885 10.1517 16.3746 10.2657 16.3997C10.3309 16.4141 10.3983 16.4141 10.4634 16.3997C10.5775 16.3746 10.6768 16.2885 10.8755 16.1163L17.5958 10.2906C19.6644 8.4975 19.9107 5.37603 18.1489 3.28067L18.059 3.17372C16.0572 0.79283 12.2777 1.2137 10.8487 3.97663C10.6455 4.36949 10.0837 4.36949 9.88047 3.97663C8.45148 1.2137 4.67195 0.792832 2.67016 3.17372L2.58023 3.28068C0.81851 5.37603 1.0648 8.4975 3.13333 10.2906Z" stroke="white" stroke-width="1.83893"/>
</svg>
