<svg width="21" height="17" viewBox="0 0 21 17" fill="none" xmlns="http://www.w3.org/2000/svg">
<path d="M3.03958 9.63732L9.75995 15.463C9.95861 15.6352 10.0579 15.7213 10.172 15.7464C10.2371 15.7608 10.3046 15.7608 10.3697 15.7464C10.4837 15.7213 10.5831 15.6352 10.7817 15.463L17.5021 9.63732C19.5706 7.84418 19.8169 4.7227 18.0552 2.62735L17.9653 2.5204C15.9635 0.13951 12.1839 0.560381 10.755 3.32331C10.5518 3.71617 9.98991 3.71617 9.78672 3.32331C8.35773 0.560381 4.5782 0.139511 2.57641 2.5204L2.48648 2.62736C0.72476 4.72271 0.971053 7.84418 3.03958 9.63732Z" stroke="white" stroke-width="1.83893"/>
</svg>
