<svg width="21" height="18" viewBox="0 0 21 18" fill="none" xmlns="http://www.w3.org/2000/svg">
<path d="M3.22708 10.568L9.94745 16.3937C10.1461 16.5659 10.2454 16.652 10.3595 16.6771C10.4246 16.6914 10.4921 16.6914 10.5572 16.6771C10.6712 16.652 10.7706 16.5659 10.9692 16.3937L17.6896 10.568C19.7581 8.77484 20.0044 5.65337 18.2427 3.55802L18.1528 3.45106C16.151 1.07017 12.3714 1.49105 10.9425 4.25397C10.7393 4.64683 10.1774 4.64683 9.97422 4.25397C8.54523 1.49105 4.7657 1.07018 2.76391 3.45106L2.67398 3.55802C0.91226 5.65337 1.15855 8.77484 3.22708 10.568Z" stroke="white" stroke-width="1.83893"/>
</svg>
