<svg width="24" height="24" viewBox="0 0 24 24" fill="none" xmlns="http://www.w3.org/2000/svg">
<path fill-rule="evenodd" clip-rule="evenodd" d="M2 0C1.46957 0 0.960859 0.210714 0.585787 0.585787C0.210714 0.960859 0 1.46957 0 2V22C0 22.5304 0.210714 23.0391 0.585787 23.4142C0.960859 23.7893 1.46957 24 2 24H22C22.5304 24 23.0391 23.7893 23.4142 23.4142C23.7893 23.0391 24 22.5304 24 22V2C24 1.46957 23.7893 0.960859 23.4142 0.585787C23.0391 0.210714 22.5304 0 22 0H2ZM17.3333 6.66667H15.3333V17.3333H17.3333V6.66667ZM18.6667 8.66667H20.6667V11.3333H21.3333V12.6667H20.6667V15.3333H18.6667V8.66667ZM6.66667 17.3333H8.66667V6.66667H6.66667V17.3333ZM5.33333 15.3333H3.33333V12.6667H2.66667V11.3333H3.33333V8.66667H5.33333V15.3333ZM10 12.6667H14V11.3333H10V12.6667Z" fill="white"/>
</svg>
