<svg width="18" height="22" viewBox="0 0 18 22" fill="none" xmlns="http://www.w3.org/2000/svg">
<path d="M8.58167 0.328613C6.30649 0.331188 4.12527 1.19932 2.51648 2.74256C0.907691 4.28581 0.00269322 6.37817 9.13001e-06 8.56065C-0.00271585 10.3442 0.604611 12.0793 1.72882 13.4999C1.72882 13.4999 1.96287 13.7955 2.0011 13.8381L8.58167 21.2829L15.1654 13.8344C15.1997 13.7947 15.4345 13.4999 15.4345 13.4999L15.4353 13.4976C16.5589 12.0777 17.166 10.3434 17.1633 8.56065C17.1606 6.37817 16.2556 4.28581 14.6469 2.74256C13.0381 1.19932 10.8568 0.331188 8.58167 0.328613ZM8.58167 11.5541C7.96447 11.5541 7.36113 11.3786 6.84795 11.0496C6.33477 10.7207 5.9348 10.2532 5.69861 9.7062C5.46241 9.15921 5.40062 8.55733 5.52103 7.97665C5.64143 7.39598 5.93864 6.86259 6.37507 6.44395C6.81149 6.0253 7.36753 5.7402 7.97287 5.6247C8.57821 5.5092 9.20565 5.56848 9.77587 5.79504C10.3461 6.02161 10.8335 6.40529 11.1764 6.89757C11.5192 7.38984 11.7023 7.9686 11.7023 8.56065C11.7012 9.35426 11.3721 10.1151 10.7871 10.6763C10.2021 11.2374 9.40899 11.5531 8.58167 11.5541Z" fill="#171313"/>
</svg>
