<svg width="21" height="18" viewBox="0 0 21 18" fill="none" xmlns="http://www.w3.org/2000/svg">
<path d="M2.94583 10.4293L9.6662 16.255C9.86486 16.4272 9.96419 16.5133 10.0782 16.5384C10.1434 16.5527 10.2108 16.5527 10.2759 16.5384C10.39 16.5133 10.4893 16.4272 10.688 16.255L17.4083 10.4293C19.4769 8.63617 19.7232 5.5147 17.9614 3.41935L17.8715 3.31239C15.8697 0.931502 12.0902 1.35237 10.6612 4.1153C10.458 4.50816 9.89616 4.50816 9.69297 4.1153C8.26398 1.35237 4.48445 0.931504 2.48266 3.31239L2.39273 3.41935C0.63101 5.5147 0.877303 8.63617 2.94583 10.4293Z" stroke="white" stroke-width="1.83893"/>
</svg>
