<svg width="21" height="18" viewBox="0 0 21 18" fill="none" xmlns="http://www.w3.org/2000/svg">
<path d="M3.03958 10.4986L9.75995 16.3243C9.95861 16.4965 10.0579 16.5826 10.172 16.6077C10.2371 16.6221 10.3046 16.6221 10.3697 16.6077C10.4837 16.5826 10.5831 16.4965 10.7817 16.3243L17.5021 10.4986C19.5706 8.70551 19.8169 5.58403 18.0552 3.48868L17.9653 3.38172C15.9635 1.00084 12.1839 1.42171 10.755 4.18463C10.5518 4.5775 9.98991 4.5775 9.78672 4.18463C8.35773 1.42171 4.5782 1.00084 2.57641 3.38173L2.48648 3.48868C0.72476 5.58403 0.971053 8.70551 3.03958 10.4986Z" stroke="white" stroke-width="1.83893"/>
</svg>
