<svg width="92" height="67" viewBox="0 0 92 67" fill="none" xmlns="http://www.w3.org/2000/svg">
<path d="M6.54709 34.6039C0.367637 31.1061 1.02972 51.3638 2.13319 61.9299C5.44359 63.0229 12.9472 65.209 16.4783 65.209C20.8922 65.209 34.1338 64.1159 42.9616 65.209C51.7894 66.302 79.3762 64.1159 85.9971 61.9299C92.6179 59.7438 90.411 55.3716 90.411 48.8134C90.411 42.2551 79.3762 42.2551 78.2728 42.2551C77.1693 42.2551 79.3762 34.6039 79.3762 28.0456C79.3762 22.799 75.698 20.7587 73.8589 20.3943C69.8128 18.5726 61.2793 15.1477 59.5137 16.0222C57.7482 16.8966 53.6285 19.3013 51.7894 20.3943C49.5825 17.8439 44.7272 13.1803 42.9616 14.9291C41.1961 16.678 34.8695 8.37087 31.9269 3.99871C29.72 -1.46649 12.0644 3.99871 8.75397 7.27783C5.44355 10.557 10.9609 20.3943 12.0644 30.2317C13.1679 40.069 14.2714 38.976 6.54709 34.6039Z" fill="#146859" stroke="white" stroke-width="1.82353"/>
</svg>
