<svg width="18" height="22" viewBox="0 0 18 22" fill="none" xmlns="http://www.w3.org/2000/svg">
<path d="M8.76917 0.328613C6.49399 0.331188 4.31277 1.19932 2.70398 2.74256C1.09519 4.28581 0.190193 6.37817 0.187509 8.56065C0.184784 10.3442 0.792111 12.0793 1.91632 13.4999C1.91632 13.4999 2.15037 13.7955 2.1886 13.8381L8.76917 21.2829L15.3529 13.8344C15.3872 13.7947 15.622 13.4999 15.622 13.4999L15.6228 13.4976C16.7464 12.0777 17.3535 10.3434 17.3508 8.56065C17.3481 6.37817 16.4431 4.28581 14.8344 2.74256C13.2256 1.19932 11.0443 0.331188 8.76917 0.328613ZM8.76917 11.5541C8.15197 11.5541 7.54863 11.3786 7.03545 11.0496C6.52227 10.7207 6.1223 10.2532 5.88611 9.7062C5.64991 9.15921 5.58812 8.55733 5.70853 7.97665C5.82893 7.39598 6.12614 6.86259 6.56257 6.44395C6.99899 6.0253 7.55503 5.7402 8.16037 5.6247C8.76571 5.5092 9.39315 5.56848 9.96337 5.79504C10.5336 6.02161 11.021 6.40529 11.3639 6.89757C11.7067 7.38984 11.8898 7.9686 11.8898 8.56065C11.8887 9.35426 11.5596 10.1151 10.9746 10.6763C10.3896 11.2374 9.59649 11.5531 8.76917 11.5541Z" fill="#171313"/>
</svg>
