<svg width="21" height="18" viewBox="0 0 21 18" fill="none" xmlns="http://www.w3.org/2000/svg">
<path d="M2.94583 10.36L9.6662 16.1856C9.86486 16.3579 9.96419 16.444 10.0782 16.4691C10.1434 16.4834 10.2108 16.4834 10.2759 16.4691C10.39 16.444 10.4893 16.3579 10.688 16.1856L17.4083 10.36C19.4769 8.56683 19.7232 5.44536 17.9614 3.35001L17.8715 3.24305C15.8697 0.862166 12.0902 1.28304 10.6612 4.04596C10.458 4.43882 9.89616 4.43882 9.69297 4.04596C8.26398 1.28304 4.48445 0.862168 2.48266 3.24305L2.39273 3.35001C0.63101 5.44536 0.877303 8.56684 2.94583 10.36Z" stroke="white" stroke-width="1.83893"/>
</svg>
