<svg width="21" height="17" viewBox="0 0 21 17" fill="none" xmlns="http://www.w3.org/2000/svg">
<path d="M3.13333 9.63732L9.8537 15.463C10.0524 15.6352 10.1517 15.7213 10.2657 15.7464C10.3309 15.7608 10.3983 15.7608 10.4634 15.7464C10.5775 15.7213 10.6768 15.6352 10.8755 15.463L17.5958 9.63732C19.6644 7.84418 19.9107 4.7227 18.1489 2.62735L18.059 2.5204C16.0572 0.13951 12.2777 0.560381 10.8487 3.32331C10.6455 3.71617 10.0837 3.71617 9.88047 3.32331C8.45148 0.560381 4.67195 0.139511 2.67016 2.5204L2.58023 2.62736C0.81851 4.72271 1.0648 7.84418 3.13333 9.63732Z" stroke="white" stroke-width="1.83893"/>
</svg>
