<svg width="18" height="22" viewBox="0 0 18 22" fill="none" xmlns="http://www.w3.org/2000/svg">
<path d="M8.67542 0.189453C6.40024 0.192028 4.21902 1.06016 2.61023 2.6034C1.00144 4.14665 0.0964432 6.23901 0.0937591 8.42149C0.0910341 10.205 0.698361 11.9401 1.82257 13.3607C1.82257 13.3607 2.05662 13.6563 2.09485 13.699L8.67542 21.1437L15.2591 13.6952C15.2934 13.6556 15.5283 13.3607 15.5283 13.3607L15.529 13.3585C16.6527 11.9385 17.2597 10.2042 17.2571 8.42149C17.2544 6.23901 16.3494 4.14665 14.7406 2.6034C13.1318 1.06016 10.9506 0.192028 8.67542 0.189453ZM8.67542 11.415C8.05822 11.415 7.45488 11.2394 6.9417 10.9105C6.42852 10.5815 6.02855 10.114 5.79236 9.56704C5.55616 9.02005 5.49437 8.41817 5.61478 7.83749C5.73518 7.25682 6.03239 6.72343 6.46882 6.30479C6.90524 5.88614 7.46128 5.60104 8.06662 5.48554C8.67196 5.37004 9.2994 5.42932 9.86962 5.65588C10.4398 5.88245 10.9272 6.26613 11.2701 6.75841C11.613 7.25068 11.796 7.82944 11.796 8.42149C11.795 9.2151 11.4659 9.97593 10.8809 10.5371C10.2959 11.0983 9.50274 11.414 8.67542 11.415Z" fill="#171313"/>
</svg>
