<svg width="18" height="22" viewBox="0 0 18 22" fill="none" xmlns="http://www.w3.org/2000/svg">
<path d="M8.86292 0.397949C6.58774 0.400524 4.40652 1.26865 2.79773 2.8119C1.18894 4.35515 0.283943 6.4475 0.281259 8.62998C0.278534 10.4135 0.885861 12.1486 2.01007 13.5692C2.01007 13.5692 2.24412 13.8648 2.28235 13.9075L8.86292 21.3522L15.4466 13.9037C15.4809 13.8641 15.7158 13.5692 15.7158 13.5692L15.7165 13.567C16.8402 12.147 17.4472 10.4127 17.4446 8.62998C17.4419 6.4475 16.5369 4.35515 14.9281 2.8119C13.3193 1.26865 11.1381 0.400524 8.86292 0.397949ZM8.86292 11.6235C8.24572 11.6235 7.64238 11.4479 7.1292 11.119C6.61602 10.79 6.21605 10.3225 5.97986 9.77553C5.74366 9.22855 5.68187 8.62666 5.80228 8.04599C5.92268 7.46531 6.21989 6.93193 6.65632 6.51328C7.09274 6.09464 7.64878 5.80954 8.25412 5.69404C8.85946 5.57853 9.4869 5.63781 10.0571 5.86438C10.6273 6.09095 11.1147 6.47463 11.4576 6.9669C11.8005 7.45918 11.9835 8.03793 11.9835 8.62998C11.9825 9.4236 11.6534 10.1844 11.0684 10.7456C10.4834 11.3068 9.69024 11.6225 8.86292 11.6235Z" fill="#171313"/>
</svg>
