<svg width="18" height="22" viewBox="0 0 18 22" fill="none" xmlns="http://www.w3.org/2000/svg">
<path d="M8.58167 0.258789C6.30649 0.261364 4.12527 1.12949 2.51648 2.67274C0.907691 4.21599 0.00269322 6.30834 9.13001e-06 8.49082C-0.00271585 10.2744 0.604611 12.0095 1.72882 13.43C1.72882 13.43 1.96287 13.7256 2.0011 13.7683L8.58167 21.2131L15.1654 13.7646C15.1997 13.7249 15.4345 13.43 15.4345 13.43L15.4353 13.4278C16.5589 12.0079 17.166 10.2735 17.1633 8.49082C17.1606 6.30834 16.2556 4.21599 14.6469 2.67274C13.0381 1.12949 10.8568 0.261364 8.58167 0.258789ZM8.58167 11.4843C7.96447 11.4843 7.36113 11.3087 6.84795 10.9798C6.33477 10.6509 5.9348 10.1834 5.69861 9.63637C5.46241 9.08939 5.40062 8.4875 5.52103 7.90683C5.64143 7.32615 5.93864 6.79277 6.37507 6.37412C6.81149 5.95548 7.36753 5.67038 7.97287 5.55488C8.57821 5.43937 9.20565 5.49865 9.77587 5.72522C10.3461 5.95179 10.8335 6.33547 11.1764 6.82774C11.5192 7.32002 11.7023 7.89877 11.7023 8.49082C11.7012 9.28444 11.3721 10.0453 10.7871 10.6064C10.2021 11.1676 9.40899 11.4833 8.58167 11.4843Z" fill="#171313"/>
</svg>
