<svg width="18" height="22" viewBox="0 0 18 22" fill="none" xmlns="http://www.w3.org/2000/svg">
<path d="M8.67542 0.328613C6.40024 0.331188 4.21902 1.19932 2.61023 2.74256C1.00144 4.28581 0.0964432 6.37817 0.0937591 8.56065C0.0910341 10.3442 0.698361 12.0793 1.82257 13.4999C1.82257 13.4999 2.05662 13.7955 2.09485 13.8381L8.67542 21.2829L15.2591 13.8344C15.2934 13.7947 15.5283 13.4999 15.5283 13.4999L15.529 13.4976C16.6527 12.0777 17.2597 10.3434 17.2571 8.56065C17.2544 6.37817 16.3494 4.28581 14.7406 2.74256C13.1318 1.19932 10.9506 0.331188 8.67542 0.328613ZM8.67542 11.5541C8.05822 11.5541 7.45488 11.3786 6.9417 11.0496C6.42852 10.7207 6.02855 10.2532 5.79236 9.7062C5.55616 9.15921 5.49437 8.55733 5.61478 7.97665C5.73518 7.39598 6.03239 6.86259 6.46882 6.44395C6.90524 6.0253 7.46128 5.7402 8.06662 5.6247C8.67196 5.5092 9.2994 5.56848 9.86962 5.79504C10.4398 6.02161 10.9272 6.40529 11.2701 6.89757C11.613 7.38984 11.796 7.9686 11.796 8.56065C11.795 9.35426 11.4659 10.1151 10.8809 10.6763C10.2959 11.2374 9.50274 11.5531 8.67542 11.5541Z" fill="#171313"/>
</svg>
