<svg width="21" height="18" viewBox="0 0 21 18" fill="none" xmlns="http://www.w3.org/2000/svg">
<path d="M3.03958 10.4293L9.75995 16.255C9.95861 16.4272 10.0579 16.5133 10.172 16.5384C10.2371 16.5527 10.3046 16.5527 10.3697 16.5384C10.4837 16.5133 10.5831 16.4272 10.7817 16.255L17.5021 10.4293C19.5706 8.63617 19.8169 5.5147 18.0552 3.41935L17.9653 3.31239C15.9635 0.931502 12.1839 1.35237 10.755 4.1153C10.5518 4.50816 9.98991 4.50816 9.78672 4.1153C8.35773 1.35237 4.5782 0.931504 2.57641 3.31239L2.48648 3.41935C0.72476 5.5147 0.971053 8.63617 3.03958 10.4293Z" stroke="white" stroke-width="1.83893"/>
</svg>
