<svg width="21" height="18" viewBox="0 0 21 18" fill="none" xmlns="http://www.w3.org/2000/svg">
<path d="M2.94583 10.568L9.6662 16.3937C9.86486 16.5659 9.96419 16.652 10.0782 16.6771C10.1434 16.6914 10.2108 16.6914 10.2759 16.6771C10.39 16.652 10.4893 16.5659 10.688 16.3937L17.4083 10.568C19.4769 8.77484 19.7232 5.65337 17.9614 3.55802L17.8715 3.45106C15.8697 1.07017 12.0902 1.49105 10.6612 4.25397C10.458 4.64683 9.89616 4.64683 9.69297 4.25397C8.26398 1.49105 4.48445 1.07018 2.48266 3.45106L2.39273 3.55802C0.63101 5.65337 0.877303 8.77484 2.94583 10.568Z" stroke="white" stroke-width="1.83893"/>
</svg>
