<svg width="21" height="18" viewBox="0 0 21 18" fill="none" xmlns="http://www.w3.org/2000/svg">
<path d="M3.22708 10.4293L9.94745 16.255C10.1461 16.4272 10.2454 16.5133 10.3595 16.5384C10.4246 16.5527 10.4921 16.5527 10.5572 16.5384C10.6712 16.5133 10.7706 16.4272 10.9692 16.255L17.6896 10.4293C19.7581 8.63617 20.0044 5.5147 18.2427 3.41935L18.1528 3.31239C16.151 0.931502 12.3714 1.35237 10.9425 4.1153C10.7393 4.50816 10.1774 4.50816 9.97422 4.1153C8.54523 1.35237 4.7657 0.931504 2.76391 3.31239L2.67398 3.41935C0.91226 5.5147 1.15855 8.63617 3.22708 10.4293Z" stroke="white" stroke-width="1.83893"/>
</svg>
