<svg width="18" height="22" viewBox="0 0 18 22" fill="none" xmlns="http://www.w3.org/2000/svg">
<path d="M8.86292 0.189453C6.58774 0.192028 4.40652 1.06016 2.79773 2.6034C1.18894 4.14665 0.283943 6.23901 0.281259 8.42149C0.278534 10.205 0.885861 11.9401 2.01007 13.3607C2.01007 13.3607 2.24412 13.6563 2.28235 13.699L8.86292 21.1437L15.4466 13.6952C15.4809 13.6556 15.7158 13.3607 15.7158 13.3607L15.7165 13.3585C16.8402 11.9385 17.4472 10.2042 17.4446 8.42149C17.4419 6.23901 16.5369 4.14665 14.9281 2.6034C13.3193 1.06016 11.1381 0.192028 8.86292 0.189453ZM8.86292 11.415C8.24572 11.415 7.64238 11.2394 7.1292 10.9105C6.61602 10.5815 6.21605 10.114 5.97986 9.56704C5.74366 9.02005 5.68187 8.41817 5.80228 7.83749C5.92268 7.25682 6.21989 6.72343 6.65632 6.30479C7.09274 5.88614 7.64878 5.60104 8.25412 5.48554C8.85946 5.37004 9.4869 5.42932 10.0571 5.65588C10.6273 5.88245 11.1147 6.26613 11.4576 6.75841C11.8005 7.25068 11.9835 7.82944 11.9835 8.42149C11.9825 9.2151 11.6534 9.97593 11.0684 10.5371C10.4834 11.0983 9.69024 11.414 8.86292 11.415Z" fill="#171313"/>
</svg>
