<svg width="21" height="18" viewBox="0 0 21 18" fill="none" xmlns="http://www.w3.org/2000/svg">
<path d="M3.03958 10.2906L9.75995 16.1163C9.95861 16.2885 10.0579 16.3746 10.172 16.3997C10.2371 16.4141 10.3046 16.4141 10.3697 16.3997C10.4837 16.3746 10.5831 16.2885 10.7817 16.1163L17.5021 10.2906C19.5706 8.4975 19.8169 5.37603 18.0552 3.28067L17.9653 3.17372C15.9635 0.79283 12.1839 1.2137 10.755 3.97663C10.5518 4.36949 9.98991 4.36949 9.78672 3.97663C8.35773 1.2137 4.5782 0.792832 2.57641 3.17372L2.48648 3.28068C0.72476 5.37603 0.971053 8.4975 3.03958 10.2906Z" stroke="white" stroke-width="1.83893"/>
</svg>
