<svg width="21" height="18" viewBox="0 0 21 18" fill="none" xmlns="http://www.w3.org/2000/svg">
<path d="M3.22708 10.4986L9.94745 16.3243C10.1461 16.4965 10.2454 16.5826 10.3595 16.6077C10.4246 16.6221 10.4921 16.6221 10.5572 16.6077C10.6712 16.5826 10.7706 16.4965 10.9692 16.3243L17.6896 10.4986C19.7581 8.70551 20.0044 5.58403 18.2427 3.48868L18.1528 3.38172C16.151 1.00084 12.3714 1.42171 10.9425 4.18463C10.7393 4.5775 10.1774 4.5775 9.97422 4.18463C8.54523 1.42171 4.7657 1.00084 2.76391 3.38173L2.67398 3.48868C0.91226 5.58403 1.15855 8.70551 3.22708 10.4986Z" stroke="white" stroke-width="1.83893"/>
</svg>
