<svg width="18" height="21" viewBox="0 0 18 21" fill="none" xmlns="http://www.w3.org/2000/svg">
<path d="M8.76917 0.0136719C6.49399 0.0162466 4.31277 0.884375 2.70398 2.42762C1.09519 3.97087 0.190193 6.06323 0.187509 8.24571C0.184784 10.0292 0.792111 11.7644 1.91632 13.1849C1.91632 13.1849 2.15037 13.4805 2.1886 13.5232L8.76917 20.9679L15.3529 13.5194C15.3872 13.4798 15.622 13.1849 15.622 13.1849L15.6228 13.1827C16.7464 11.7627 17.3535 10.0284 17.3508 8.24571C17.3481 6.06323 16.4431 3.97087 14.8344 2.42762C13.2256 0.884375 11.0443 0.0162466 8.76917 0.0136719ZM8.76917 11.2392C8.15197 11.2392 7.54863 11.0636 7.03545 10.7347C6.52227 10.4058 6.1223 9.93824 5.88611 9.39126C5.64991 8.84427 5.58812 8.24239 5.70853 7.66171C5.82893 7.08103 6.12614 6.54765 6.56257 6.12901C6.99899 5.71036 7.55503 5.42526 8.16037 5.30976C8.76571 5.19425 9.39315 5.25354 9.96337 5.4801C10.5336 5.70667 11.021 6.09035 11.3639 6.58263C11.7067 7.0749 11.8898 7.65366 11.8898 8.24571C11.8887 9.03932 11.5596 9.80014 10.9746 10.3613C10.3896 10.9225 9.59649 11.2382 8.76917 11.2392Z" fill="#171313"/>
</svg>
