<svg width="21" height="18" viewBox="0 0 21 18" fill="none" xmlns="http://www.w3.org/2000/svg">
<path d="M3.13333 10.4293L9.8537 16.255C10.0524 16.4272 10.1517 16.5133 10.2657 16.5384C10.3309 16.5527 10.3983 16.5527 10.4634 16.5384C10.5775 16.5133 10.6768 16.4272 10.8755 16.255L17.5958 10.4293C19.6644 8.63617 19.9107 5.5147 18.1489 3.41935L18.059 3.31239C16.0572 0.931502 12.2777 1.35237 10.8487 4.1153C10.6455 4.50816 10.0837 4.50816 9.88047 4.1153C8.45148 1.35237 4.67195 0.931504 2.67016 3.31239L2.58023 3.41935C0.81851 5.5147 1.0648 8.63617 3.13333 10.4293Z" stroke="white" stroke-width="1.83893"/>
</svg>
