<svg width="21" height="18" viewBox="0 0 21 18" fill="none" xmlns="http://www.w3.org/2000/svg">
<path d="M2.94583 10.4986L9.6662 16.3243C9.86486 16.4965 9.96419 16.5826 10.0782 16.6077C10.1434 16.6221 10.2108 16.6221 10.2759 16.6077C10.39 16.5826 10.4893 16.4965 10.688 16.3243L17.4083 10.4986C19.4769 8.70551 19.7232 5.58403 17.9614 3.48868L17.8715 3.38172C15.8697 1.00084 12.0902 1.42171 10.6612 4.18463C10.458 4.5775 9.89616 4.5775 9.69297 4.18463C8.26398 1.42171 4.48445 1.00084 2.48266 3.38173L2.39273 3.48868C0.63101 5.58403 0.877303 8.70551 2.94583 10.4986Z" stroke="white" stroke-width="1.83893"/>
</svg>
