<svg width="21" height="18" viewBox="0 0 21 18" fill="none" xmlns="http://www.w3.org/2000/svg">
<path d="M2.94583 10.2906L9.6662 16.1163C9.86486 16.2885 9.96419 16.3746 10.0782 16.3997C10.1434 16.4141 10.2108 16.4141 10.2759 16.3997C10.39 16.3746 10.4893 16.2885 10.688 16.1163L17.4083 10.2906C19.4769 8.4975 19.7232 5.37603 17.9614 3.28067L17.8715 3.17372C15.8697 0.79283 12.0902 1.2137 10.6612 3.97663C10.458 4.36949 9.89616 4.36949 9.69297 3.97663C8.26398 1.2137 4.48445 0.792832 2.48266 3.17372L2.39273 3.28068C0.63101 5.37603 0.877303 8.4975 2.94583 10.2906Z" stroke="white" stroke-width="1.83893"/>
</svg>
