<svg width="18" height="22" viewBox="0 0 18 22" fill="none" xmlns="http://www.w3.org/2000/svg">
<path d="M8.58167 0.189453C6.30649 0.192028 4.12527 1.06016 2.51648 2.6034C0.907691 4.14665 0.00269322 6.23901 9.13001e-06 8.42149C-0.00271585 10.205 0.604611 11.9401 1.72882 13.3607C1.72882 13.3607 1.96287 13.6563 2.0011 13.699L8.58167 21.1437L15.1654 13.6952C15.1997 13.6556 15.4345 13.3607 15.4345 13.3607L15.4353 13.3585C16.5589 11.9385 17.166 10.2042 17.1633 8.42149C17.1606 6.23901 16.2556 4.14665 14.6469 2.6034C13.0381 1.06016 10.8568 0.192028 8.58167 0.189453ZM8.58167 11.415C7.96447 11.415 7.36113 11.2394 6.84795 10.9105C6.33477 10.5815 5.9348 10.114 5.69861 9.56704C5.46241 9.02005 5.40062 8.41817 5.52103 7.83749C5.64143 7.25682 5.93864 6.72343 6.37507 6.30479C6.81149 5.88614 7.36753 5.60104 7.97287 5.48554C8.57821 5.37004 9.20565 5.42932 9.77587 5.65588C10.3461 5.88245 10.8335 6.26613 11.1764 6.75841C11.5192 7.25068 11.7023 7.82944 11.7023 8.42149C11.7012 9.2151 11.3721 9.97593 10.7871 10.5371C10.2021 11.0983 9.40899 11.414 8.58167 11.415Z" fill="#171313"/>
</svg>
