<svg width="21" height="18" viewBox="0 0 21 18" fill="none" xmlns="http://www.w3.org/2000/svg">
<path d="M3.13333 10.4986L9.8537 16.3243C10.0524 16.4965 10.1517 16.5826 10.2657 16.6077C10.3309 16.6221 10.3983 16.6221 10.4634 16.6077C10.5775 16.5826 10.6768 16.4965 10.8755 16.3243L17.5958 10.4986C19.6644 8.70551 19.9107 5.58403 18.1489 3.48868L18.059 3.38172C16.0572 1.00084 12.2777 1.42171 10.8487 4.18463C10.6455 4.5775 10.0837 4.5775 9.88047 4.18463C8.45148 1.42171 4.67195 1.00084 2.67016 3.38173L2.58023 3.48868C0.81851 5.58403 1.0648 8.70551 3.13333 10.4986Z" stroke="white" stroke-width="1.83893"/>
</svg>
