<svg width="18" height="22" viewBox="0 0 18 22" fill="none" xmlns="http://www.w3.org/2000/svg">
<path d="M8.67542 0.944336C6.40024 0.946911 4.21902 1.81504 2.61023 3.35829C1.00144 4.90154 0.0964432 6.99389 0.0937591 9.17637C0.0910341 10.9599 0.698361 12.695 1.82257 14.1156C1.82257 14.1156 2.05662 14.4112 2.09485 14.4539L8.67542 21.8986L15.2591 14.4501C15.2934 14.4104 15.5283 14.1156 15.5283 14.1156L15.529 14.1133C16.6527 12.6934 17.2597 10.9591 17.2571 9.17637C17.2544 6.99389 16.3494 4.90154 14.7406 3.35829C13.1318 1.81504 10.9506 0.946911 8.67542 0.944336ZM8.67542 12.1698C8.05822 12.1698 7.45488 11.9943 6.9417 11.6653C6.42852 11.3364 6.02855 10.8689 5.79236 10.3219C5.55616 9.77494 5.49437 9.17305 5.61478 8.59237C5.73518 8.0117 6.03239 7.47831 6.46882 7.05967C6.90524 6.64103 7.46128 6.35593 8.06662 6.24042C8.67196 6.12492 9.2994 6.1842 9.86962 6.41077C10.4398 6.63734 10.9272 7.02102 11.2701 7.51329C11.613 8.00556 11.796 8.58432 11.796 9.17637C11.795 9.96998 11.4659 10.7308 10.8809 11.292C10.2959 11.8531 9.50274 12.1688 8.67542 12.1698Z" fill="#171313"/>
</svg>
