<svg width="18" height="22" viewBox="0 0 18 22" fill="none" xmlns="http://www.w3.org/2000/svg">
<path d="M8.58167 0.944336C6.30649 0.946911 4.12527 1.81504 2.51648 3.35829C0.907691 4.90154 0.00269322 6.99389 9.13001e-06 9.17637C-0.00271585 10.9599 0.604611 12.695 1.72882 14.1156C1.72882 14.1156 1.96287 14.4112 2.0011 14.4539L8.58167 21.8986L15.1654 14.4501C15.1997 14.4104 15.4345 14.1156 15.4345 14.1156L15.4353 14.1133C16.5589 12.6934 17.166 10.9591 17.1633 9.17637C17.1606 6.99389 16.2556 4.90154 14.6469 3.35829C13.0381 1.81504 10.8568 0.946911 8.58167 0.944336ZM8.58167 12.1698C7.96447 12.1698 7.36113 11.9943 6.84795 11.6653C6.33477 11.3364 5.9348 10.8689 5.69861 10.3219C5.46241 9.77494 5.40062 9.17305 5.52103 8.59237C5.64143 8.0117 5.93864 7.47831 6.37507 7.05967C6.81149 6.64103 7.36753 6.35593 7.97287 6.24042C8.57821 6.12492 9.20565 6.1842 9.77587 6.41077C10.3461 6.63734 10.8335 7.02102 11.1764 7.51329C11.5192 8.00556 11.7023 8.58432 11.7023 9.17637C11.7012 9.96998 11.3721 10.7308 10.7871 11.292C10.2021 11.8531 9.40899 12.1688 8.58167 12.1698Z" fill="#171313"/>
</svg>
