<svg width="18" height="21" viewBox="0 0 18 21" fill="none" xmlns="http://www.w3.org/2000/svg">
<path d="M8.67542 0.0136719C6.40024 0.0162466 4.21902 0.884375 2.61023 2.42762C1.00144 3.97087 0.0964432 6.06323 0.0937591 8.24571C0.0910341 10.0292 0.698361 11.7644 1.82257 13.1849C1.82257 13.1849 2.05662 13.4805 2.09485 13.5232L8.67542 20.9679L15.2591 13.5194C15.2934 13.4798 15.5283 13.1849 15.5283 13.1849L15.529 13.1827C16.6527 11.7627 17.2597 10.0284 17.2571 8.24571C17.2544 6.06323 16.3494 3.97087 14.7406 2.42762C13.1318 0.884375 10.9506 0.0162466 8.67542 0.0136719ZM8.67542 11.2392C8.05822 11.2392 7.45488 11.0636 6.9417 10.7347C6.42852 10.4058 6.02855 9.93824 5.79236 9.39126C5.55616 8.84427 5.49437 8.24239 5.61478 7.66171C5.73518 7.08103 6.03239 6.54765 6.46882 6.12901C6.90524 5.71036 7.46128 5.42526 8.06662 5.30976C8.67196 5.19425 9.2994 5.25354 9.86962 5.4801C10.4398 5.70667 10.9272 6.09035 11.2701 6.58263C11.613 7.0749 11.796 7.65366 11.796 8.24571C11.795 9.03932 11.4659 9.80014 10.8809 10.3613C10.2959 10.9225 9.50274 11.2382 8.67542 11.2392Z" fill="#171313"/>
</svg>
