<svg width="18" height="22" viewBox="0 0 18 22" fill="none" xmlns="http://www.w3.org/2000/svg">
<path d="M8.86292 0.467285C6.58774 0.46986 4.40652 1.33799 2.79773 2.88124C1.18894 4.42448 0.283943 6.51684 0.281259 8.69932C0.278534 10.4828 0.885861 12.218 2.01007 13.6385C2.01007 13.6385 2.24412 13.9341 2.28235 13.9768L8.86292 21.4216L15.4466 13.9731C15.4809 13.9334 15.7158 13.6385 15.7158 13.6385L15.7165 13.6363C16.8402 12.2164 17.4472 10.482 17.4446 8.69932C17.4419 6.51684 16.5369 4.42448 14.9281 2.88124C13.3193 1.33799 11.1381 0.46986 8.86292 0.467285ZM8.86292 11.6928C8.24572 11.6928 7.64238 11.5172 7.1292 11.1883C6.61602 10.8594 6.21605 10.3919 5.97986 9.84487C5.74366 9.29789 5.68187 8.696 5.80228 8.11532C5.92268 7.53465 6.21989 7.00126 6.65632 6.58262C7.09274 6.16398 7.64878 5.87887 8.25412 5.76337C8.85946 5.64787 9.4869 5.70715 10.0571 5.93372C10.6273 6.16029 11.1147 6.54397 11.4576 7.03624C11.8005 7.52851 11.9835 8.10727 11.9835 8.69932C11.9825 9.49293 11.6534 10.2538 11.0684 10.8149C10.4834 11.3761 9.69024 11.6918 8.86292 11.6928Z" fill="#171313"/>
</svg>
