<svg width="21" height="17" viewBox="0 0 21 17" fill="none" xmlns="http://www.w3.org/2000/svg">
<path d="M3.22708 9.63732L9.94745 15.463C10.1461 15.6352 10.2454 15.7213 10.3595 15.7464C10.4246 15.7608 10.4921 15.7608 10.5572 15.7464C10.6712 15.7213 10.7706 15.6352 10.9692 15.463L17.6896 9.63732C19.7581 7.84418 20.0044 4.7227 18.2427 2.62735L18.1528 2.5204C16.151 0.13951 12.3714 0.560381 10.9425 3.32331C10.7393 3.71617 10.1774 3.71617 9.97422 3.32331C8.54523 0.560381 4.7657 0.139511 2.76391 2.5204L2.67398 2.62736C0.91226 4.72271 1.15855 7.84418 3.22708 9.63732Z" stroke="white" stroke-width="1.83893"/>
</svg>
