<svg width="18" height="22" viewBox="0 0 18 22" fill="none" xmlns="http://www.w3.org/2000/svg">
<path d="M8.67542 0.397949C6.40024 0.400524 4.21902 1.26865 2.61023 2.8119C1.00144 4.35515 0.0964432 6.4475 0.0937591 8.62998C0.0910341 10.4135 0.698361 12.1486 1.82257 13.5692C1.82257 13.5692 2.05662 13.8648 2.09485 13.9075L8.67542 21.3522L15.2591 13.9037C15.2934 13.8641 15.5283 13.5692 15.5283 13.5692L15.529 13.567C16.6527 12.147 17.2597 10.4127 17.2571 8.62998C17.2544 6.4475 16.3494 4.35515 14.7406 2.8119C13.1318 1.26865 10.9506 0.400524 8.67542 0.397949ZM8.67542 11.6235C8.05822 11.6235 7.45488 11.4479 6.9417 11.119C6.42852 10.79 6.02855 10.3225 5.79236 9.77553C5.55616 9.22855 5.49437 8.62666 5.61478 8.04599C5.73518 7.46531 6.03239 6.93193 6.46882 6.51328C6.90524 6.09464 7.46128 5.80954 8.06662 5.69404C8.67196 5.57853 9.2994 5.63781 9.86962 5.86438C10.4398 6.09095 10.9272 6.47463 11.2701 6.9669C11.613 7.45918 11.796 8.03793 11.796 8.62998C11.795 9.4236 11.4659 10.1844 10.8809 10.7456C10.2959 11.3068 9.50274 11.6225 8.67542 11.6235Z" fill="#171313"/>
</svg>
