<svg width="18" height="22" viewBox="0 0 18 22" fill="none" xmlns="http://www.w3.org/2000/svg">
<path d="M8.86292 0.328613C6.58774 0.331188 4.40652 1.19932 2.79773 2.74256C1.18894 4.28581 0.283943 6.37817 0.281259 8.56065C0.278534 10.3442 0.885861 12.0793 2.01007 13.4999C2.01007 13.4999 2.24412 13.7955 2.28235 13.8381L8.86292 21.2829L15.4466 13.8344C15.4809 13.7947 15.7158 13.4999 15.7158 13.4999L15.7165 13.4976C16.8402 12.0777 17.4472 10.3434 17.4446 8.56065C17.4419 6.37817 16.5369 4.28581 14.9281 2.74256C13.3193 1.19932 11.1381 0.331188 8.86292 0.328613ZM8.86292 11.5541C8.24572 11.5541 7.64238 11.3786 7.1292 11.0496C6.61602 10.7207 6.21605 10.2532 5.97986 9.7062C5.74366 9.15921 5.68187 8.55733 5.80228 7.97665C5.92268 7.39598 6.21989 6.86259 6.65632 6.44395C7.09274 6.0253 7.64878 5.7402 8.25412 5.6247C8.85946 5.5092 9.4869 5.56848 10.0571 5.79504C10.6273 6.02161 11.1147 6.40529 11.4576 6.89757C11.8005 7.38984 11.9835 7.9686 11.9835 8.56065C11.9825 9.35426 11.6534 10.1151 11.0684 10.6763C10.4834 11.2374 9.69024 11.5531 8.86292 11.5541Z" fill="#171313"/>
</svg>
