<svg width="18" height="22" viewBox="0 0 18 22" fill="none" xmlns="http://www.w3.org/2000/svg">
<path d="M8.76917 0.467285C6.49399 0.46986 4.31277 1.33799 2.70398 2.88124C1.09519 4.42448 0.190193 6.51684 0.187509 8.69932C0.184784 10.4828 0.792111 12.218 1.91632 13.6385C1.91632 13.6385 2.15037 13.9341 2.1886 13.9768L8.76917 21.4216L15.3529 13.9731C15.3872 13.9334 15.622 13.6385 15.622 13.6385L15.6228 13.6363C16.7464 12.2164 17.3535 10.482 17.3508 8.69932C17.3481 6.51684 16.4431 4.42448 14.8344 2.88124C13.2256 1.33799 11.0443 0.46986 8.76917 0.467285ZM8.76917 11.6928C8.15197 11.6928 7.54863 11.5172 7.03545 11.1883C6.52227 10.8594 6.1223 10.3919 5.88611 9.84487C5.64991 9.29789 5.58812 8.696 5.70853 8.11532C5.82893 7.53465 6.12614 7.00126 6.56257 6.58262C6.99899 6.16398 7.55503 5.87887 8.16037 5.76337C8.76571 5.64787 9.39315 5.70715 9.96337 5.93372C10.5336 6.16029 11.021 6.54397 11.3639 7.03624C11.7067 7.52851 11.8898 8.10727 11.8898 8.69932C11.8887 9.49293 11.5596 10.2538 10.9746 10.8149C10.3896 11.3761 9.59649 11.6918 8.76917 11.6928Z" fill="#171313"/>
</svg>
