<svg width="18" height="22" viewBox="0 0 18 22" fill="none" xmlns="http://www.w3.org/2000/svg">
<path d="M8.76917 0.397949C6.49399 0.400524 4.31277 1.26865 2.70398 2.8119C1.09519 4.35515 0.190193 6.4475 0.187509 8.62998C0.184784 10.4135 0.792111 12.1486 1.91632 13.5692C1.91632 13.5692 2.15037 13.8648 2.1886 13.9075L8.76917 21.3522L15.3529 13.9037C15.3872 13.8641 15.622 13.5692 15.622 13.5692L15.6228 13.567C16.7464 12.147 17.3535 10.4127 17.3508 8.62998C17.3481 6.4475 16.4431 4.35515 14.8344 2.8119C13.2256 1.26865 11.0443 0.400524 8.76917 0.397949ZM8.76917 11.6235C8.15197 11.6235 7.54863 11.4479 7.03545 11.119C6.52227 10.79 6.1223 10.3225 5.88611 9.77553C5.64991 9.22855 5.58812 8.62666 5.70853 8.04599C5.82893 7.46531 6.12614 6.93193 6.56257 6.51328C6.99899 6.09464 7.55503 5.80954 8.16037 5.69404C8.76571 5.57853 9.39315 5.63781 9.96337 5.86438C10.5336 6.09095 11.021 6.47463 11.3639 6.9669C11.7067 7.45918 11.8898 8.03793 11.8898 8.62998C11.8887 9.4236 11.5596 10.1844 10.9746 10.7456C10.3896 11.3068 9.59649 11.6225 8.76917 11.6235Z" fill="#171313"/>
</svg>
